<svg id="svg" version="1.1" xmlns="http://www.w3.org/2000/svg" xmlns:xlink="http://www.w3.org/1999/xlink" width="400" height="89.87626546681665" viewBox="0, 0, 400,89.87626546681665"><g id="svgg"><path id="path0" d="M340.193 15.651 C 339.900 16.103,339.040 17.247,338.282 18.194 C 335.461 21.718,334.964 22.478,335.458 22.507 C 335.527 22.511,335.954 22.612,336.406 22.732 L 337.229 22.948 335.919 23.067 C 333.733 23.265,333.772 23.130,334.252 28.750 C 334.553 32.282,334.593 32.462,335.217 33.123 C 335.761 33.697,335.748 33.978,335.192 33.680 C 334.526 33.324,333.385 33.586,332.863 34.214 C 332.702 34.408,332.808 34.496,333.459 34.712 C 334.223 34.965,336.456 35.782,337.354 36.137 C 337.716 36.279,337.915 37.167,337.586 37.167 C 337.502 37.167,335.553 36.510,333.958 35.945 C 333.065 35.629,332.320 35.418,332.303 35.476 C 332.286 35.535,332.267 37.699,332.261 40.285 L 332.250 44.986 333.500 45.422 C 334.188 45.662,335.725 46.221,336.917 46.665 C 338.108 47.108,339.833 47.744,340.750 48.078 C 341.667 48.412,343.167 48.976,344.083 49.332 C 345.000 49.687,346.462 50.239,347.333 50.558 C 348.204 50.877,349.967 51.524,351.250 51.997 C 354.440 53.173,355.180 53.444,356.292 53.848 C 356.819 54.039,357.700 54.372,358.250 54.587 C 359.499 55.075,362.211 56.073,363.750 56.611 C 364.392 56.835,365.067 57.082,365.250 57.160 C 365.433 57.237,365.996 57.453,366.500 57.640 C 367.949 58.176,371.465 59.497,372.833 60.020 C 374.993 60.846,375.354 60.831,376.985 59.846 C 377.756 59.381,378.413 59.000,378.446 59.000 C 378.479 59.000,379.000 58.700,379.603 58.333 C 380.207 57.967,380.730 57.667,380.765 57.667 C 380.800 57.667,381.674 57.169,382.706 56.560 C 383.739 55.951,384.658 55.414,384.750 55.366 C 385.441 55.008,383.466 56.422,379.318 59.257 C 376.431 61.230,376.333 61.331,376.333 62.325 L 376.333 63.136 374.625 64.025 C 373.685 64.514,372.635 65.048,372.292 65.212 C 371.948 65.376,371.667 65.570,371.667 65.644 C 371.667 65.827,373.176 66.544,374.500 66.990 C 375.096 67.191,375.733 67.419,375.917 67.498 C 376.100 67.576,376.456 67.685,376.708 67.740 C 377.164 67.839,377.167 67.847,377.157 69.212 L 377.147 70.583 376.767 69.750 C 376.228 68.567,376.028 68.451,372.167 67.087 C 370.846 66.620,370.827 66.641,370.878 68.521 L 370.917 69.917 372.083 70.309 C 377.362 72.084,377.438 72.089,379.060 70.812 L 380.369 69.781 380.252 67.724 C 380.178 66.420,380.194 65.667,380.297 65.667 C 380.441 65.667,381.726 64.984,383.750 63.832 C 384.641 63.326,385.542 62.826,386.750 62.169 C 387.786 61.606,388.420 61.246,389.417 60.653 C 390.449 60.039,390.037 60.471,388.913 61.181 C 386.831 62.496,386.939 62.637,390.188 62.845 C 391.597 62.936,392.839 63.041,392.948 63.079 C 393.056 63.117,393.169 63.091,393.198 63.022 C 393.226 62.953,393.700 62.645,394.250 62.336 C 394.800 62.028,395.569 61.560,395.958 61.297 L 396.667 60.817 396.667 58.583 L 396.667 56.350 395.625 55.777 C 395.052 55.462,394.240 55.017,393.820 54.788 C 392.191 53.899,392.310 54.095,392.366 52.400 L 392.417 50.883 391.745 50.858 C 391.376 50.845,390.738 50.736,390.328 50.618 L 389.583 50.402 389.562 47.706 C 389.541 45.088,389.550 45.007,389.895 44.911 C 390.256 44.811,390.467 44.728,391.500 44.282 C 391.821 44.144,392.533 43.844,393.083 43.617 C 396.658 42.138,399.297 40.934,399.583 40.652 C 399.906 40.335,399.918 40.072,399.963 32.691 C 400.020 23.405,400.323 24.279,396.833 23.665 C 396.238 23.560,395.412 23.411,395.000 23.333 C 394.587 23.256,393.762 23.106,393.167 23.000 C 392.571 22.894,391.746 22.744,391.333 22.667 C 390.921 22.589,390.096 22.439,389.500 22.333 C 388.904 22.228,388.079 22.078,387.667 22.000 C 387.254 21.922,386.429 21.772,385.833 21.666 C 385.238 21.559,384.225 21.365,383.583 21.232 C 382.942 21.100,379.904 20.542,376.833 19.992 C 373.762 19.442,370.875 18.919,370.417 18.828 C 367.935 18.340,364.291 17.644,363.417 17.492 C 362.867 17.397,362.042 17.253,361.583 17.172 C 361.125 17.091,360.150 16.943,359.417 16.843 C 358.683 16.743,357.311 16.548,356.367 16.409 C 355.423 16.271,354.597 16.190,354.533 16.230 C 354.468 16.270,354.040 16.237,353.582 16.157 C 352.767 16.015,345.469 15.273,343.000 15.082 C 342.313 15.028,341.519 14.950,341.238 14.907 C 340.775 14.837,340.674 14.909,340.193 15.651 M350.250 17.511 C 353.354 17.868,357.085 18.451,360.333 19.087 C 361.113 19.240,363.250 19.657,365.083 20.014 C 366.917 20.371,368.792 20.740,369.250 20.834 C 370.085 21.005,373.218 21.596,374.000 21.730 C 377.731 22.370,379.651 22.834,386.250 24.691 C 386.617 24.794,387.142 24.941,387.417 25.018 C 389.259 25.531,389.101 25.657,387.136 25.243 C 386.465 25.102,385.654 24.949,385.333 24.904 C 385.012 24.859,384.412 24.756,384.000 24.674 C 383.587 24.592,382.762 24.439,382.167 24.334 C 381.571 24.228,380.918 24.110,380.717 24.070 C 380.430 24.014,380.234 24.169,379.808 24.791 C 379.510 25.227,379.187 25.667,379.091 25.769 C 378.559 26.335,374.333 32.613,374.333 32.837 C 374.333 32.904,375.027 33.122,375.875 33.322 C 379.990 34.291,382.547 34.909,383.887 35.257 L 385.357 35.639 385.677 34.893 C 386.297 33.447,387.043 31.740,387.436 30.870 C 387.655 30.386,387.833 29.957,387.833 29.916 C 387.833 29.875,388.072 29.334,388.364 28.713 C 388.656 28.091,388.906 27.546,388.921 27.500 C 389.404 25.984,389.957 25.460,390.611 25.898 C 390.625 25.908,390.510 26.179,390.355 26.500 C 390.200 26.821,389.968 27.346,389.840 27.667 C 389.505 28.508,389.042 29.544,387.383 33.167 C 386.655 34.757,386.537 35.065,386.364 35.833 C 386.192 36.594,385.939 38.492,385.684 40.917 C 385.557 42.128,385.542 41.998,385.522 39.490 L 385.500 36.731 383.292 36.192 C 382.077 35.895,380.746 35.566,380.333 35.460 C 379.921 35.354,379.583 35.287,379.583 35.312 C 379.583 35.336,379.358 35.268,379.083 35.159 C 378.808 35.050,378.396 34.933,378.167 34.900 C 377.938 34.866,376.925 34.620,375.917 34.353 C 373.695 33.764,373.837 33.684,373.818 35.552 L 373.803 37.083 373.359 35.340 L 372.915 33.596 371.916 33.296 C 370.331 32.819,370.393 32.866,370.791 32.468 C 371.125 32.134,371.195 32.127,372.166 32.333 C 373.361 32.587,373.209 32.689,374.515 30.750 C 375.009 30.017,375.460 29.379,375.518 29.333 C 375.833 29.083,379.161 23.960,379.087 23.839 C 379.038 23.760,378.680 23.649,378.291 23.592 C 377.902 23.534,377.283 23.420,376.917 23.338 C 376.550 23.256,375.762 23.104,375.167 23.000 C 374.571 22.896,373.783 22.746,373.417 22.667 C 373.050 22.587,372.262 22.437,371.667 22.333 C 371.071 22.229,370.283 22.079,369.917 22.000 C 369.550 21.921,368.762 21.771,368.167 21.667 C 367.571 21.563,366.783 21.408,366.417 21.323 C 366.050 21.238,365.525 21.132,365.250 21.088 C 364.975 21.044,364.412 20.935,364.000 20.846 C 363.587 20.756,362.518 20.543,361.624 20.372 L 359.999 20.061 359.121 20.989 C 358.638 21.499,357.907 22.326,357.497 22.826 C 355.764 24.934,355.685 24.895,357.172 22.667 C 358.167 21.176,358.667 20.291,358.667 20.022 C 358.667 19.519,354.959 18.896,349.583 18.494 C 348.208 18.391,346.633 18.247,346.083 18.174 C 345.533 18.101,344.920 18.103,344.720 18.178 C 344.423 18.291,342.163 21.285,340.923 23.209 C 340.465 23.920,340.935 24.279,342.708 24.577 C 343.429 24.698,343.516 25.012,342.919 25.332 C 342.576 25.515,342.381 25.516,341.794 25.337 C 339.202 24.546,338.993 24.841,339.022 29.251 C 339.036 31.283,338.985 31.876,338.749 32.417 C 338.590 32.784,338.402 33.308,338.331 33.583 C 338.212 34.041,338.057 27.637,338.157 26.419 C 338.214 25.734,341.181 21.002,343.635 17.684 L 344.053 17.119 346.402 17.229 C 347.693 17.289,349.425 17.416,350.250 17.511 M43.606 20.129 C 44.919 21.355,47.017 23.248,48.917 24.921 C 49.742 25.647,50.750 26.562,51.158 26.954 L 51.899 27.667 46.388 27.667 L 40.877 27.667 40.757 28.292 C 40.539 29.430,40.376 30.232,40.002 32.000 C 39.389 34.898,39.330 35.219,39.403 35.292 C 39.441 35.330,39.985 35.427,40.611 35.508 C 41.237 35.589,43.700 35.928,46.083 36.262 C 48.467 36.595,50.796 36.906,51.260 36.952 L 52.103 37.036 52.316 36.324 C 52.434 35.933,52.560 35.456,52.597 35.265 C 52.634 35.073,52.736 34.542,52.823 34.083 C 52.911 33.625,53.183 32.313,53.427 31.167 C 53.672 30.021,54.005 28.446,54.167 27.667 C 54.329 26.887,54.704 25.087,55.000 23.667 C 55.587 20.851,55.808 19.697,55.823 19.375 C 55.831 19.212,54.405 19.168,49.208 19.171 L 42.583 19.175 43.606 20.129 M59.439 20.295 C 60.556 21.349,61.720 22.404,64.083 24.504 C 65.605 25.856,65.684 25.927,66.667 26.824 L 67.583 27.661 62.042 27.664 C 58.994 27.665,56.490 27.723,56.479 27.792 C 56.467 27.860,56.437 28.067,56.411 28.250 C 56.386 28.433,56.240 29.146,56.087 29.833 C 55.933 30.521,55.775 31.271,55.734 31.500 C 55.652 31.961,55.071 34.707,54.836 35.750 C 54.435 37.521,54.328 37.392,56.417 37.655 C 57.722 37.819,59.158 38.008,61.667 38.346 C 67.569 39.141,67.500 39.138,67.500 38.606 C 67.500 38.364,67.575 38.167,67.667 38.167 C 67.758 38.167,67.833 38.388,67.833 38.659 C 67.833 39.206,67.634 39.140,70.333 39.492 C 72.728 39.804,74.031 39.978,75.333 40.159 C 76.021 40.255,76.846 40.370,77.167 40.414 C 78.633 40.618,81.487 41.001,82.167 41.086 C 82.579 41.137,83.404 41.249,84.000 41.334 C 88.573 41.986,88.569 41.986,88.730 41.138 C 88.787 40.833,88.867 40.433,88.906 40.250 C 89.464 37.663,89.956 35.337,90.335 33.500 C 90.591 32.262,91.041 30.087,91.336 28.667 C 91.631 27.246,91.930 25.783,92.000 25.417 C 92.071 25.050,92.295 23.962,92.498 23.000 C 92.702 22.037,92.937 20.912,93.020 20.500 C 93.103 20.087,93.213 19.619,93.264 19.458 C 93.350 19.184,92.963 19.167,86.712 19.167 L 80.068 19.167 79.689 20.958 C 79.480 21.944,79.283 22.900,79.252 23.083 C 79.221 23.267,78.998 24.317,78.755 25.417 C 78.513 26.517,78.247 27.754,78.164 28.167 C 78.080 28.579,77.784 30.004,77.504 31.333 C 76.898 34.216,76.006 38.518,75.845 39.333 L 75.731 39.917 75.605 39.126 C 75.536 38.692,75.480 38.300,75.479 38.255 C 75.479 38.210,75.410 37.935,75.327 37.644 C 75.243 37.353,75.129 36.809,75.074 36.436 C 75.018 36.062,74.937 35.699,74.893 35.628 C 74.849 35.557,74.751 35.143,74.676 34.708 C 74.601 34.273,74.147 32.004,73.667 29.667 C 73.187 27.329,72.759 25.229,72.716 25.000 C 72.673 24.771,72.523 24.021,72.383 23.333 C 72.243 22.646,72.005 21.446,71.854 20.667 L 71.580 19.250 64.915 19.212 L 58.250 19.173 59.439 20.295 M102.417 19.336 C 98.654 19.910,95.730 22.730,94.208 27.250 C 93.821 28.400,93.702 28.881,92.845 32.750 C 92.289 35.259,92.420 38.726,93.125 40.167 C 94.416 42.807,95.899 43.321,102.583 43.441 C 106.741 43.517,106.803 43.524,107.445 44.057 C 107.898 44.432,109.365 44.823,110.667 44.916 C 110.987 44.939,111.625 45.009,112.083 45.073 C 112.542 45.136,113.179 45.224,113.500 45.269 C 113.821 45.313,114.871 45.461,115.833 45.598 C 116.796 45.734,117.960 45.888,118.421 45.938 L 119.258 46.031 119.500 44.974 C 119.824 43.560,119.839 39.144,119.522 38.333 C 118.875 36.678,118.485 36.136,117.386 35.365 C 116.186 34.523,115.714 34.452,110.666 34.345 C 105.291 34.232,105.046 34.176,104.431 32.925 C 103.830 31.704,104.639 29.337,105.954 28.467 C 107.057 27.737,107.875 27.667,115.236 27.667 L 122.123 27.667 122.217 27.042 C 122.269 26.698,122.544 25.329,122.827 24.000 C 123.111 22.671,123.414 21.208,123.499 20.750 C 123.585 20.292,123.704 19.748,123.764 19.542 L 123.872 19.167 113.561 19.187 C 107.890 19.199,102.875 19.266,102.417 19.336 M136.000 19.245 C 136.000 19.288,137.273 21.106,138.828 23.286 L 141.656 27.250 136.937 27.294 L 132.218 27.338 131.622 28.628 C 131.294 29.337,130.766 30.479,130.449 31.167 C 130.131 31.854,129.553 33.092,129.165 33.917 C 127.470 37.520,127.000 38.534,127.000 38.590 C 127.000 38.623,126.633 39.423,126.184 40.367 C 122.995 47.080,123.151 46.667,123.806 46.667 C 124.065 46.667,124.684 46.737,125.181 46.822 C 125.677 46.908,126.721 47.060,127.500 47.161 C 128.279 47.261,129.460 47.416,130.125 47.505 C 130.790 47.594,131.877 47.738,132.542 47.826 C 133.206 47.914,134.350 48.067,135.083 48.167 C 135.817 48.266,136.960 48.419,137.625 48.507 C 138.290 48.595,139.377 48.739,140.042 48.827 C 140.706 48.915,141.813 49.060,142.500 49.149 C 144.647 49.428,146.314 49.653,149.417 50.082 C 153.826 50.692,154.855 50.826,155.474 50.874 L 156.031 50.917 156.008 48.551 C 155.995 47.250,155.958 46.048,155.926 45.880 C 155.893 45.712,155.820 44.489,155.764 43.162 C 155.707 41.835,155.589 39.137,155.502 37.167 C 155.414 35.196,155.263 31.783,155.166 29.583 C 155.070 27.383,154.917 24.271,154.828 22.667 C 154.738 21.063,154.665 19.619,154.666 19.458 C 154.667 19.184,154.112 19.167,145.333 19.167 C 140.200 19.167,136.000 19.202,136.000 19.245 M165.833 19.243 C 165.833 19.381,168.660 21.954,173.167 25.917 L 175.062 27.583 169.531 27.627 C 166.489 27.651,163.999 27.689,163.998 27.711 C 163.996 27.754,163.367 30.782,162.812 33.417 C 162.619 34.333,162.398 35.383,162.321 35.750 C 162.110 36.755,161.820 38.170,161.672 38.917 C 161.599 39.283,161.410 40.146,161.253 40.833 C 161.095 41.521,160.943 42.233,160.915 42.417 C 160.864 42.746,160.420 44.869,159.592 48.742 C 159.023 51.407,159.027 51.500,159.719 51.500 C 160.023 51.500,160.680 51.568,161.178 51.650 C 161.676 51.733,162.758 51.887,163.583 51.992 C 164.408 52.096,165.571 52.250,166.167 52.333 C 166.762 52.416,167.925 52.570,168.750 52.676 C 169.575 52.781,170.608 52.924,171.045 52.995 C 172.010 53.150,171.934 53.266,172.431 50.870 C 172.906 48.580,173.723 44.612,174.085 42.833 C 174.225 42.146,174.409 41.283,174.494 40.917 C 174.580 40.550,174.736 39.856,174.841 39.375 C 175.117 38.119,175.239 38.268,175.660 40.375 C 175.867 41.406,176.096 42.550,176.169 42.917 C 176.329 43.717,176.648 45.330,176.828 46.250 C 176.899 46.617,177.301 48.604,177.721 50.667 C 178.140 52.729,178.519 54.604,178.562 54.833 C 178.666 55.378,179.141 57.644,179.253 58.125 L 179.340 58.500 185.981 58.500 L 192.623 58.500 192.718 57.875 C 192.837 57.096,193.118 55.629,193.316 54.750 C 193.399 54.383,193.546 53.708,193.644 53.250 C 193.741 52.792,193.937 51.892,194.078 51.250 C 194.219 50.608,194.563 48.996,194.842 47.667 C 195.121 46.337,195.429 44.875,195.527 44.417 C 195.624 43.958,195.761 43.283,195.832 42.917 C 195.903 42.550,196.129 41.462,196.333 40.500 C 196.538 39.537,196.763 38.450,196.833 38.083 C 197.022 37.093,197.944 32.691,198.421 30.500 C 198.650 29.446,198.987 27.871,199.169 27.000 C 199.351 26.129,199.728 24.329,200.007 23.000 C 200.287 21.671,200.559 20.265,200.613 19.875 L 200.710 19.167 194.184 19.167 L 187.658 19.167 187.486 19.619 C 187.335 20.016,186.941 21.803,186.484 24.167 C 186.404 24.579,186.195 25.592,186.020 26.417 C 185.580 28.483,184.660 32.924,184.482 33.833 C 184.401 34.246,184.268 34.883,184.186 35.250 C 184.103 35.617,183.876 36.700,183.681 37.657 C 183.226 39.885,183.172 39.939,182.916 38.417 C 182.716 37.228,181.283 30.138,180.423 26.083 C 180.112 24.617,179.803 23.117,179.735 22.750 C 179.566 21.827,179.548 21.738,179.336 20.772 C 179.232 20.301,179.113 19.748,179.071 19.542 L 178.994 19.167 172.413 19.167 C 168.794 19.167,165.833 19.201,165.833 19.243 M208.283 19.772 C 208.225 19.830,208.826 20.327,209.618 20.876 C 210.410 21.425,211.139 21.942,211.237 22.024 C 211.336 22.106,211.899 22.491,212.488 22.878 L 213.559 23.583 210.348 23.667 L 207.137 23.750 206.836 24.667 C 206.671 25.171,206.145 27.046,205.667 28.833 C 205.190 30.621,204.658 32.573,204.487 33.171 C 204.022 34.792,203.308 37.520,203.213 38.042 L 203.129 38.500 211.106 38.496 C 219.201 38.492,219.905 38.446,221.245 37.836 C 222.681 37.181,224.080 35.297,224.650 33.250 C 224.752 32.883,225.246 31.083,225.749 29.250 C 226.251 27.417,226.738 25.687,226.830 25.406 C 227.800 22.469,226.804 20.290,224.290 19.853 C 223.151 19.654,208.475 19.581,208.283 19.772 M229.842 19.792 C 229.847 19.860,230.465 20.344,231.217 20.867 C 231.968 21.390,233.181 22.233,233.912 22.742 L 235.241 23.667 232.047 23.667 C 230.165 23.667,228.812 23.733,228.753 23.828 C 228.664 23.973,228.066 26.024,227.405 28.458 C 226.880 30.387,226.676 31.140,226.333 32.417 C 226.136 33.150,225.873 34.125,225.749 34.583 C 225.624 35.042,225.369 35.987,225.182 36.684 C 224.995 37.381,224.794 38.075,224.736 38.226 C 224.640 38.476,224.999 38.500,228.796 38.500 L 232.960 38.500 233.146 37.792 C 233.248 37.402,233.521 36.408,233.753 35.583 C 233.985 34.758,234.205 33.896,234.243 33.667 C 234.281 33.438,234.463 32.762,234.648 32.167 C 234.832 31.571,235.217 30.221,235.503 29.167 C 235.789 28.113,236.126 26.875,236.251 26.417 C 236.376 25.958,236.596 25.152,236.739 24.625 C 236.883 24.098,237.112 23.254,237.250 22.750 C 237.387 22.246,237.613 21.415,237.751 20.903 C 237.890 20.391,237.960 19.904,237.908 19.820 C 237.795 19.637,229.829 19.609,229.842 19.792 M243.364 19.853 C 240.933 20.257,238.000 23.088,238.000 25.029 C 238.000 25.255,236.220 31.904,235.812 33.202 C 235.133 35.362,235.675 37.220,237.250 38.128 C 238.040 38.584,255.229 38.667,255.415 38.216 C 255.545 37.900,255.565 37.828,256.222 35.333 C 256.570 34.011,257.727 29.799,258.319 27.698 C 258.528 26.959,258.720 26.987,253.837 27.039 L 249.597 27.083 249.487 27.583 C 249.321 28.334,248.713 30.542,248.581 30.875 C 248.478 31.133,248.578 31.167,249.458 31.167 L 250.451 31.167 250.210 32.042 C 250.078 32.523,249.895 33.235,249.804 33.625 L 249.640 34.333 247.678 34.333 C 243.792 34.333,243.774 34.283,245.496 28.167 C 245.587 27.846,245.774 27.177,245.913 26.680 C 246.660 24.009,246.886 23.929,253.851 23.867 L 259.452 23.817 259.711 22.700 C 259.853 22.086,260.078 21.191,260.210 20.711 C 260.342 20.231,260.411 19.800,260.364 19.753 C 260.215 19.604,244.295 19.698,243.364 19.853 M262.005 19.789 C 262.010 19.925,263.254 20.838,265.824 22.592 L 267.398 23.667 264.127 23.667 C 261.155 23.667,260.848 23.693,260.770 23.958 C 260.638 24.406,259.590 28.247,258.143 33.583 C 257.647 35.412,257.530 35.836,257.170 37.101 C 256.985 37.753,256.833 38.335,256.833 38.396 C 256.833 38.456,258.686 38.486,260.951 38.461 L 265.069 38.417 265.301 37.667 C 265.428 37.254,265.592 36.654,265.666 36.333 C 265.740 36.012,265.949 35.225,266.131 34.583 C 266.959 31.666,267.381 30.141,267.747 28.750 C 267.964 27.925,268.266 26.800,268.417 26.250 C 268.569 25.700,268.831 24.725,269.000 24.083 C 269.168 23.442,269.471 22.317,269.673 21.583 C 269.874 20.850,270.049 20.137,270.061 20.000 C 270.080 19.785,269.515 19.744,266.042 19.705 C 263.819 19.681,262.002 19.718,262.005 19.789 M271.519 20.208 C 271.206 21.188,270.667 23.322,270.667 23.580 C 270.667 23.798,271.130 23.833,274.000 23.833 C 275.833 23.833,277.332 23.890,277.329 23.958 C 277.327 24.027,277.170 24.646,276.981 25.333 C 276.792 26.021,276.575 26.808,276.499 27.083 C 276.423 27.358,276.173 28.296,275.943 29.167 C 275.713 30.037,275.411 31.182,275.271 31.710 C 275.131 32.239,274.980 32.731,274.934 32.805 C 274.888 32.879,274.816 33.122,274.773 33.345 C 274.730 33.568,274.427 34.724,274.098 35.915 C 273.769 37.106,273.500 38.175,273.500 38.290 C 273.500 38.666,281.596 38.586,281.748 38.208 C 281.812 38.048,282.040 37.242,282.253 36.417 C 282.604 35.062,282.879 34.049,283.359 32.333 C 283.449 32.012,283.587 31.488,283.667 31.167 C 283.746 30.846,283.895 30.283,283.998 29.917 C 284.263 28.972,284.394 28.499,284.987 26.333 C 285.276 25.279,285.552 24.285,285.601 24.125 C 285.681 23.859,286.000 23.833,289.178 23.833 C 292.387 23.833,292.667 23.810,292.673 23.542 C 292.676 23.381,292.893 22.500,293.154 21.583 C 293.415 20.667,293.596 19.860,293.555 19.792 C 293.514 19.723,288.578 19.667,282.586 19.667 L 271.693 19.667 271.519 20.208 M296.612 19.792 C 296.570 19.860,297.276 20.704,298.179 21.667 L 299.822 23.417 297.030 23.462 L 294.238 23.508 293.275 25.129 C 291.856 27.517,290.709 29.394,290.553 29.583 C 290.478 29.675,290.306 29.975,290.172 30.250 C 290.037 30.525,289.718 31.064,289.463 31.447 C 289.209 31.830,289.000 32.188,289.000 32.242 C 289.000 32.297,288.756 32.705,288.458 33.149 C 288.160 33.594,287.794 34.173,287.644 34.437 C 287.495 34.701,286.882 35.724,286.282 36.711 L 285.192 38.505 289.528 38.461 L 293.863 38.417 294.801 36.625 L 295.740 34.833 298.203 34.833 L 300.667 34.833 300.667 36.667 L 300.667 38.500 305.015 38.500 L 309.363 38.500 309.262 37.875 C 309.207 37.531,309.087 35.862,308.995 34.167 C 308.801 30.594,308.561 26.375,308.337 22.583 C 308.250 21.117,308.176 19.860,308.173 19.792 C 308.170 19.723,305.584 19.667,302.427 19.667 C 299.269 19.667,296.653 19.723,296.612 19.792 M315.167 19.825 C 315.167 19.976,319.815 23.264,320.333 23.479 C 320.471 23.537,319.094 23.621,317.275 23.667 L 313.966 23.750 313.756 24.417 C 313.555 25.055,313.334 25.862,312.500 29.000 C 311.992 30.912,310.925 34.760,310.415 36.516 C 310.187 37.304,310.000 38.073,310.000 38.226 C 310.000 38.481,310.687 38.500,318.784 38.460 L 327.568 38.417 327.881 37.250 C 328.054 36.608,328.252 35.858,328.322 35.583 C 328.391 35.308,328.503 34.915,328.569 34.708 L 328.689 34.333 323.992 34.333 L 319.294 34.333 319.407 33.958 C 319.469 33.752,319.659 33.058,319.830 32.417 C 320.238 30.883,320.490 29.963,321.405 26.667 C 321.824 25.154,322.324 23.317,322.515 22.583 C 322.706 21.850,322.931 21.078,323.015 20.867 C 323.098 20.657,323.167 20.300,323.167 20.075 L 323.167 19.667 319.167 19.667 C 316.760 19.667,315.167 19.730,315.167 19.825 M346.667 20.335 C 347.980 20.617,352.000 21.537,353.167 21.824 C 353.854 21.993,354.623 22.178,354.875 22.235 L 355.333 22.340 354.726 23.253 C 354.392 23.756,354.084 24.167,354.042 24.167 C 353.962 24.167,351.907 23.674,347.083 22.500 C 345.617 22.142,344.288 21.828,344.130 21.800 C 343.895 21.759,343.965 21.591,344.523 20.861 C 345.127 20.072,345.252 19.986,345.643 20.092 C 345.885 20.157,346.346 20.267,346.667 20.335 M217.817 24.297 C 218.352 24.698,218.398 25.997,217.934 27.583 C 217.774 28.133,217.463 29.258,217.245 30.083 C 216.645 32.356,216.639 32.373,216.223 33.037 C 215.566 34.088,212.272 35.008,212.538 34.066 C 212.621 33.771,213.039 32.244,213.595 30.208 C 213.726 29.727,213.952 28.902,214.096 28.375 C 214.355 27.433,214.876 25.486,215.088 24.667 C 215.325 23.755,215.281 23.782,216.362 23.880 C 216.996 23.938,217.549 24.096,217.817 24.297 M363.100 23.979 C 363.366 24.059,363.996 24.213,364.500 24.321 C 365.004 24.428,365.754 24.593,366.167 24.686 C 367.392 24.965,368.163 25.137,369.833 25.505 C 370.704 25.697,371.776 25.945,372.216 26.056 L 373.015 26.258 372.344 27.296 C 371.637 28.390,371.558 28.427,370.449 28.174 C 370.064 28.087,369.262 27.904,368.667 27.769 C 366.416 27.257,362.567 26.307,362.167 26.164 C 361.938 26.082,361.431 25.934,361.042 25.835 C 360.180 25.615,360.169 25.485,360.928 24.559 C 361.562 23.785,362.038 23.658,363.100 23.979 M300.901 27.898 L 300.783 30.833 299.308 30.833 C 297.590 30.833,297.640 30.930,298.543 29.333 C 298.932 28.646,299.623 27.356,300.078 26.467 C 300.533 25.578,300.931 24.876,300.962 24.907 C 300.993 24.938,300.966 26.284,300.901 27.898 M345.834 26.841 C 346.155 26.936,347.804 27.390,349.500 27.850 C 352.435 28.645,353.317 28.883,356.292 29.679 C 357.002 29.869,357.958 30.128,358.417 30.254 C 360.733 30.890,365.559 32.164,366.625 32.421 C 367.964 32.743,367.965 32.745,367.489 33.333 C 366.112 35.036,364.548 37.699,363.770 39.667 C 362.785 42.156,361.999 47.307,362.000 51.275 L 362.000 53.466 360.542 52.973 C 359.740 52.701,358.483 52.266,357.750 52.005 C 357.017 51.744,355.742 51.293,354.917 51.003 C 352.955 50.314,351.769 49.875,350.771 49.469 C 350.324 49.288,349.837 49.113,349.688 49.080 C 349.539 49.047,348.592 48.711,347.583 48.332 C 346.575 47.954,345.337 47.492,344.833 47.306 C 344.329 47.120,343.767 46.905,343.583 46.829 C 343.188 46.665,341.079 45.918,339.958 45.546 C 339.192 45.291,339.166 45.260,339.144 44.600 C 338.905 37.477,340.038 32.461,342.798 28.417 C 344.072 26.550,344.360 26.400,345.834 26.841 M143.170 33.431 C 143.080 35.715,142.970 38.662,142.926 39.979 C 142.882 41.297,142.817 42.406,142.780 42.442 C 142.743 42.479,141.622 42.488,140.288 42.463 L 137.863 42.417 139.679 37.917 C 140.677 35.442,141.571 33.286,141.664 33.127 C 141.757 32.968,141.833 32.761,141.833 32.667 C 141.833 32.573,141.983 32.160,142.167 31.748 C 142.350 31.337,142.650 30.663,142.833 30.252 C 143.017 29.840,143.167 29.415,143.167 29.307 C 143.167 29.199,143.204 29.149,143.250 29.195 C 143.296 29.241,143.260 31.147,143.170 33.431 M38.660 38.375 C 38.527 38.948,38.413 39.492,38.407 39.583 C 38.400 39.675,38.342 39.975,38.278 40.250 C 38.214 40.525,38.129 40.900,38.090 41.083 C 37.763 42.626,36.764 47.394,36.503 48.667 C 36.324 49.538,35.949 51.337,35.670 52.667 C 35.067 55.536,34.500 58.329,34.500 58.431 C 34.500 58.471,37.477 58.484,41.116 58.460 L 47.732 58.417 48.039 56.917 C 48.207 56.092,48.373 55.304,48.408 55.167 C 48.442 55.029,48.662 53.979,48.898 52.833 C 49.133 51.688,49.553 49.663,49.832 48.333 C 50.110 47.004,50.561 44.829,50.834 43.500 C 51.107 42.171,51.436 40.596,51.564 40.000 C 51.693 39.404,51.776 38.893,51.750 38.865 C 51.701 38.812,49.074 38.471,46.333 38.164 C 44.499 37.958,42.554 37.714,40.968 37.490 C 38.901 37.199,38.936 37.186,38.660 38.375 M54.100 39.354 C 54.060 39.480,53.992 39.771,53.949 40.000 C 53.906 40.229,53.629 41.579,53.333 43.000 C 53.037 44.421,52.731 45.921,52.653 46.333 C 52.575 46.746,52.392 47.608,52.246 48.250 C 52.100 48.892,51.943 49.604,51.897 49.833 C 51.272 52.905,50.462 56.711,50.332 57.186 C 50.241 57.517,50.167 57.949,50.167 58.144 L 50.167 58.500 56.736 58.500 L 63.306 58.500 63.660 56.875 C 63.854 55.981,64.081 54.950,64.164 54.583 C 64.247 54.217,64.348 53.729,64.387 53.500 C 64.479 52.964,64.961 50.614,65.156 49.750 C 65.239 49.383,65.396 48.633,65.506 48.083 C 65.615 47.533,65.771 46.858,65.851 46.583 C 65.932 46.308,66.027 45.858,66.063 45.583 C 66.099 45.308,66.291 44.333,66.491 43.417 C 67.122 40.517,67.123 40.701,66.478 40.608 C 65.508 40.468,62.779 40.130,62.083 40.063 C 61.717 40.028,60.992 39.922,60.473 39.828 C 59.953 39.734,59.466 39.673,59.389 39.693 C 59.313 39.713,58.762 39.669,58.167 39.597 C 57.571 39.525,56.858 39.438,56.583 39.405 C 54.328 39.130,54.172 39.127,54.100 39.354 M366.917 41.154 C 369.340 41.829,370.065 42.023,371.917 42.493 L 373.750 42.959 373.800 43.538 C 373.851 44.121,375.148 44.667,376.482 44.667 C 376.675 44.667,376.833 44.733,376.833 44.815 C 376.833 44.896,376.927 44.956,377.042 44.947 C 377.406 44.918,378.901 45.205,379.333 45.387 C 379.563 45.483,380.162 45.653,380.667 45.765 C 381.171 45.877,382.146 46.117,382.833 46.299 C 384.787 46.815,385.358 46.871,385.876 46.596 C 386.406 46.314,386.339 46.516,385.615 47.382 L 385.226 47.847 383.738 47.496 C 382.920 47.303,381.950 47.073,381.583 46.986 C 381.217 46.898,380.635 46.781,380.292 46.725 L 379.667 46.623 379.667 50.246 C 379.667 53.631,379.686 53.861,379.958 53.749 C 380.119 53.682,380.475 53.568,380.750 53.495 C 381.025 53.421,381.775 53.199,382.417 53.000 C 383.058 52.802,383.715 52.600,383.875 52.550 C 384.399 52.390,384.182 52.644,383.542 52.941 C 383.198 53.100,382.648 53.397,382.320 53.600 C 381.599 54.045,379.087 55.333,378.939 55.333 C 378.881 55.333,378.833 53.314,378.833 50.846 L 378.833 46.359 378.292 46.197 C 377.648 46.004,375.593 45.519,373.624 45.094 C 373.292 45.022,371.910 45.358,371.390 45.637 C 371.153 45.763,371.016 46.045,370.953 46.536 C 370.809 47.668,370.327 50.228,370.243 50.312 C 370.201 50.354,370.167 49.326,370.167 48.028 L 370.167 45.667 369.728 45.667 C 369.486 45.667,369.017 45.595,368.686 45.508 C 365.852 44.762,364.898 44.550,364.208 44.511 C 364.091 44.505,364.000 44.283,364.000 44.000 C 364.000 43.337,363.835 43.329,367.667 44.172 C 368.079 44.263,368.679 44.380,369.000 44.432 C 369.321 44.484,369.751 44.608,369.957 44.707 C 370.323 44.885,370.858 44.787,372.203 44.296 C 373.437 43.845,372.962 43.368,370.917 43.003 C 370.275 42.889,369.600 42.736,369.417 42.663 C 368.694 42.375,368.379 42.295,367.417 42.154 C 364.840 41.777,364.500 41.649,364.500 41.055 C 364.500 40.548,364.783 40.559,366.917 41.154 M68.333 41.011 C 68.333 41.109,68.668 42.853,69.078 44.886 C 69.488 46.920,69.866 48.840,69.919 49.153 C 69.971 49.466,70.048 49.776,70.089 49.843 C 70.130 49.910,70.198 50.232,70.240 50.560 C 70.282 50.888,70.390 51.439,70.480 51.786 C 70.570 52.133,70.731 52.867,70.838 53.417 C 71.126 54.899,71.348 56.001,71.510 56.750 C 71.589 57.117,71.700 57.660,71.757 57.958 L 71.860 58.500 78.491 58.500 L 85.123 58.500 85.217 57.958 C 85.269 57.660,85.551 56.292,85.844 54.917 C 86.137 53.542,86.433 52.117,86.502 51.750 C 86.571 51.383,86.795 50.296,86.999 49.333 C 87.204 48.371,87.435 47.246,87.513 46.833 C 87.592 46.421,87.771 45.558,87.911 44.917 C 88.302 43.130,88.378 43.242,86.625 43.016 C 84.052 42.684,81.962 42.431,78.167 41.994 C 77.296 41.893,76.096 41.747,75.500 41.668 C 74.904 41.589,73.629 41.439,72.667 41.334 C 71.704 41.229,70.461 41.074,69.903 40.989 C 68.601 40.789,68.333 40.793,68.333 41.011 M201.667 42.216 C 201.667 42.243,202.059 42.561,202.539 42.924 C 203.020 43.287,203.526 43.673,203.664 43.782 C 203.803 43.892,204.402 44.342,204.995 44.782 L 206.074 45.583 203.391 45.629 L 200.708 45.675 200.525 46.379 C 199.953 48.587,197.631 57.989,197.561 58.378 L 197.479 58.840 200.864 58.795 L 204.250 58.750 204.947 56.000 C 205.331 54.487,205.649 53.199,205.655 53.137 C 205.662 53.075,207.260 53.000,209.208 52.970 C 214.983 52.883,216.165 51.791,217.244 45.542 C 217.448 44.363,216.882 43.163,215.817 42.514 C 215.316 42.208,201.667 41.921,201.667 42.216 M219.425 42.309 C 219.512 42.387,220.546 43.174,221.722 44.059 L 223.861 45.667 221.127 45.667 L 218.392 45.667 218.010 47.292 C 217.800 48.185,217.569 49.104,217.497 49.333 C 217.424 49.563,217.278 50.125,217.172 50.583 C 217.066 51.042,216.909 51.679,216.824 52.000 C 216.464 53.357,215.653 56.609,215.598 56.917 C 215.565 57.101,215.455 57.551,215.353 57.917 C 215.252 58.284,215.168 58.640,215.168 58.708 C 215.167 58.777,216.695 58.833,218.563 58.833 L 221.959 58.833 222.310 57.354 C 222.904 54.856,222.765 54.884,224.176 56.978 L 225.417 58.820 229.136 58.827 L 232.856 58.833 230.928 56.003 C 228.666 52.682,228.801 53.069,229.858 52.929 C 232.346 52.599,233.602 51.076,234.572 47.218 C 235.244 44.544,234.933 43.173,233.494 42.466 C 232.862 42.156,219.083 42.002,219.425 42.309 M237.795 42.500 C 237.992 42.683,238.231 42.833,238.326 42.833 C 238.422 42.833,238.500 42.892,238.500 42.964 C 238.500 43.036,238.722 43.226,238.994 43.387 C 239.266 43.547,239.584 43.769,239.702 43.881 C 239.820 43.992,240.361 44.421,240.903 44.833 L 241.890 45.583 239.273 45.629 C 236.310 45.681,236.560 45.551,236.170 47.250 C 236.065 47.708,235.912 48.346,235.829 48.667 C 235.747 48.987,235.371 50.525,234.995 52.083 C 234.618 53.642,234.242 55.104,234.159 55.333 C 234.077 55.563,233.974 55.955,233.933 56.206 C 233.891 56.456,233.810 56.736,233.754 56.827 C 233.698 56.918,233.625 57.200,233.591 57.454 C 233.558 57.709,233.478 58.123,233.414 58.375 L 233.297 58.833 236.702 58.833 L 240.106 58.833 241.078 54.958 C 241.612 52.827,242.108 50.821,242.180 50.500 C 242.252 50.179,242.392 49.617,242.491 49.250 C 242.590 48.883,242.738 48.283,242.820 47.917 C 243.074 46.782,244.126 42.766,244.251 42.458 C 244.361 42.186,244.138 42.167,240.903 42.167 L 237.437 42.167 237.795 42.500 M245.500 42.234 C 245.500 42.271,246.037 42.700,246.694 43.187 C 247.351 43.674,248.170 44.300,248.514 44.578 C 248.858 44.856,249.311 45.215,249.520 45.375 C 249.888 45.656,249.807 45.667,247.212 45.667 C 244.792 45.667,244.515 45.696,244.443 45.958 C 244.399 46.119,244.202 46.925,244.005 47.750 C 243.495 49.885,243.511 49.826,243.224 50.833 C 243.081 51.337,242.938 51.900,242.908 52.083 C 242.878 52.267,242.576 53.467,242.237 54.750 C 241.899 56.033,241.566 57.346,241.498 57.667 C 241.431 57.987,241.320 58.383,241.252 58.545 C 241.136 58.823,241.333 58.838,244.593 58.795 L 248.059 58.750 249.045 54.833 C 249.588 52.679,250.088 50.857,250.157 50.785 C 250.263 50.671,251.821 56.635,251.933 57.583 C 251.955 57.767,252.052 58.123,252.149 58.375 L 252.325 58.833 255.704 58.831 L 259.083 58.828 261.039 50.956 C 262.115 46.626,263.042 42.877,263.099 42.625 L 263.203 42.167 259.806 42.167 L 256.409 42.167 255.430 46.125 C 254.311 50.647,254.242 50.842,254.082 49.912 C 254.019 49.548,253.901 49.025,253.818 48.750 C 253.735 48.475,253.368 47.050,253.002 45.583 C 252.636 44.117,252.290 42.748,252.233 42.542 C 252.137 42.200,245.500 41.897,245.500 42.234 M264.014 43.708 C 263.803 44.556,263.597 45.381,263.554 45.542 C 263.483 45.811,263.691 45.833,266.239 45.833 C 268.106 45.833,269.000 45.892,269.000 46.013 C 269.000 46.214,266.026 58.239,265.886 58.603 C 265.813 58.794,266.377 58.833,269.232 58.833 C 271.121 58.833,272.667 58.809,272.667 58.778 C 272.667 58.748,273.196 56.630,273.844 54.070 C 274.491 51.511,275.050 49.285,275.085 49.124 C 275.119 48.963,275.274 48.363,275.429 47.791 C 275.583 47.218,275.746 46.545,275.790 46.296 L 275.870 45.841 278.716 45.796 L 281.563 45.750 281.942 44.333 C 282.151 43.554,282.324 42.748,282.328 42.542 L 282.333 42.167 273.365 42.167 L 264.396 42.167 264.014 43.708 M284.083 42.576 C 284.358 42.797,285.369 43.565,286.330 44.281 L 288.077 45.583 285.390 45.629 L 282.702 45.675 281.673 49.879 C 281.106 52.191,280.574 54.308,280.491 54.583 C 280.302 55.207,279.500 58.553,279.500 58.718 C 279.500 58.785,281.017 58.820,282.872 58.795 L 286.243 58.750 288.283 50.667 C 289.405 46.221,290.325 42.490,290.328 42.375 C 290.332 42.215,289.552 42.167,286.958 42.170 L 283.583 42.173 284.083 42.576 M291.678 42.292 C 291.685 42.360,292.660 43.129,293.845 44.000 L 296.000 45.583 293.345 45.629 L 290.690 45.675 290.529 46.212 C 290.440 46.508,290.280 47.125,290.173 47.583 C 290.066 48.042,289.912 48.679,289.830 49.000 C 289.748 49.321,289.447 50.558,289.161 51.750 C 288.876 52.942,288.562 54.127,288.464 54.384 C 288.366 54.641,288.262 55.016,288.233 55.217 C 288.204 55.419,287.991 56.296,287.760 57.167 C 287.529 58.038,287.339 58.769,287.337 58.792 C 287.335 58.815,288.868 58.833,290.744 58.833 L 294.154 58.833 294.345 58.125 C 294.450 57.735,294.934 55.842,295.419 53.917 C 295.904 51.992,296.343 50.529,296.395 50.667 C 296.536 51.040,297.194 53.661,297.249 54.065 C 297.275 54.259,297.548 55.410,297.856 56.623 L 298.417 58.830 301.779 58.832 L 305.141 58.833 305.327 58.208 C 305.577 57.371,305.750 56.700,306.175 54.917 C 306.372 54.092,306.598 53.192,306.677 52.917 C 306.756 52.642,306.978 51.779,307.172 51.000 C 307.365 50.221,307.930 47.976,308.428 46.011 C 308.926 44.046,309.333 42.377,309.333 42.302 C 309.333 42.228,307.804 42.167,305.936 42.167 L 302.538 42.167 302.447 42.625 C 302.397 42.877,302.243 43.474,302.105 43.953 C 301.968 44.431,301.818 45.031,301.773 45.286 C 301.727 45.541,301.563 46.200,301.409 46.750 C 301.096 47.861,300.934 48.522,300.675 49.736 C 300.578 50.187,300.476 50.580,300.447 50.608 C 300.391 50.665,300.356 50.527,299.335 46.250 C 298.963 44.692,298.583 43.135,298.490 42.792 L 298.320 42.167 294.993 42.167 C 293.164 42.167,291.672 42.223,291.678 42.292 M312.917 42.400 C 310.484 43.339,310.049 44.113,308.493 50.266 C 306.971 56.281,306.966 57.155,308.445 58.283 L 309.057 58.750 316.320 58.750 L 323.583 58.750 323.797 57.917 C 323.914 57.458,324.087 56.746,324.180 56.333 C 324.337 55.640,324.431 55.252,324.828 53.667 C 324.908 53.346,325.205 52.188,325.487 51.093 C 325.769 49.999,326.000 49.004,326.000 48.882 C 326.000 48.703,325.306 48.669,322.394 48.705 L 318.788 48.750 318.401 50.333 C 317.888 52.432,317.870 52.333,318.761 52.333 C 319.408 52.333,319.509 52.377,319.435 52.625 C 319.387 52.785,319.221 53.431,319.066 54.059 L 318.784 55.202 316.958 55.139 C 314.590 55.058,314.089 54.538,314.666 52.762 C 314.758 52.480,315.095 51.163,315.416 49.833 C 316.388 45.809,316.180 45.931,322.177 45.868 L 326.831 45.818 326.935 45.368 C 326.992 45.120,327.180 44.374,327.353 43.711 C 327.525 43.048,327.667 42.430,327.667 42.336 C 327.667 42.085,313.576 42.145,312.917 42.400 M108.075 46.292 C 107.893 47.359,107.610 48.007,107.027 48.687 C 105.962 49.932,106.203 49.900,97.250 49.997 L 89.250 50.083 89.061 51.000 C 88.957 51.504,88.743 52.479,88.586 53.167 C 88.429 53.854,88.241 54.717,88.169 55.083 C 88.097 55.450,87.917 56.350,87.769 57.083 C 87.621 57.817,87.500 58.439,87.500 58.467 C 87.500 58.494,92.619 58.493,98.875 58.464 L 110.250 58.411 111.480 57.965 C 115.016 56.682,117.400 53.655,118.642 48.871 C 119.169 46.841,119.183 46.885,117.958 46.758 C 117.385 46.699,116.392 46.584,115.750 46.503 C 115.108 46.422,113.833 46.269,112.917 46.165 C 112.000 46.060,110.794 45.905,110.236 45.820 C 108.377 45.538,108.197 45.578,108.075 46.292 M209.422 46.075 C 210.515 46.531,210.119 48.337,208.785 48.983 C 208.170 49.281,206.667 49.480,206.667 49.263 C 206.667 49.225,206.783 48.738,206.926 48.181 C 207.069 47.624,207.216 47.012,207.252 46.821 C 207.427 45.916,207.505 45.833,208.183 45.833 C 208.547 45.833,209.104 45.942,209.422 46.075 M227.438 46.200 C 228.519 47.281,226.955 49.320,225.038 49.330 C 224.228 49.334,224.246 49.540,224.853 47.211 C 225.025 46.548,225.167 45.958,225.167 45.900 C 225.167 45.677,227.182 45.944,227.438 46.200 M336.768 47.287 C 336.712 47.343,336.667 47.620,336.668 47.903 C 336.668 48.409,336.855 48.777,337.658 49.849 C 337.882 50.148,337.995 50.358,337.908 50.314 C 336.222 49.463,335.456 49.306,334.498 49.615 C 333.392 49.973,333.504 50.078,336.252 51.267 C 339.318 52.594,339.374 52.594,342.132 51.319 C 342.710 51.052,343.235 50.831,343.299 50.828 C 343.455 50.820,344.167 50.223,344.167 50.101 C 344.167 49.991,343.070 49.505,342.608 49.409 C 342.438 49.375,342.194 49.259,342.066 49.153 C 341.938 49.046,341.833 49.003,341.833 49.057 C 341.833 49.111,341.477 48.999,341.042 48.810 C 340.606 48.620,339.875 48.331,339.417 48.168 C 338.958 48.004,338.198 47.717,337.727 47.528 C 337.255 47.340,336.824 47.232,336.768 47.287 M122.810 47.700 C 122.679 47.911,122.282 48.721,121.928 49.500 C 121.574 50.279,120.846 51.835,120.309 52.956 C 119.772 54.078,119.333 55.035,119.333 55.081 C 119.333 55.128,118.996 55.850,118.583 56.685 C 118.171 57.520,117.833 58.271,117.833 58.353 C 117.833 58.441,120.695 58.486,124.697 58.460 L 131.561 58.417 133.072 54.667 L 134.583 50.917 138.733 50.872 L 142.883 50.827 142.764 54.664 L 142.646 58.500 149.531 58.500 L 156.417 58.500 156.375 56.958 C 156.352 56.110,156.288 54.500,156.233 53.379 L 156.134 51.342 155.608 51.267 C 155.320 51.226,154.333 51.108,153.417 51.005 C 151.797 50.823,150.239 50.640,147.667 50.330 C 146.979 50.247,145.667 50.097,144.750 49.995 C 143.833 49.894,142.671 49.741,142.167 49.656 C 141.662 49.572,140.691 49.459,140.009 49.407 C 139.326 49.355,138.712 49.278,138.644 49.236 C 138.577 49.194,137.823 49.089,136.969 49.002 C 135.264 48.828,134.034 48.687,129.667 48.165 C 128.063 47.974,126.112 47.745,125.333 47.657 C 124.554 47.569,123.721 47.457,123.483 47.407 C 123.152 47.339,122.992 47.409,122.810 47.700 M332.702 52.433 L 332.750 54.033 333.417 54.404 C 333.783 54.607,334.683 55.020,335.417 55.321 C 336.150 55.622,336.975 55.964,337.250 56.081 C 338.910 56.789,338.551 56.851,342.250 55.214 C 343.901 54.483,344.382 54.277,347.042 53.160 C 349.537 52.112,349.522 52.142,347.928 51.406 C 346.421 50.710,345.818 50.693,344.463 51.308 C 343.887 51.569,342.716 52.076,341.859 52.433 C 340.096 53.169,339.653 53.532,339.333 54.502 C 338.998 55.515,338.833 55.471,338.833 54.370 L 338.833 53.388 337.364 52.699 C 335.997 52.059,332.967 50.833,332.750 50.833 C 332.698 50.833,332.676 51.553,332.702 52.433 M158.919 51.889 C 158.886 51.996,158.667 53.058,158.431 54.250 C 158.195 55.442,157.901 56.885,157.779 57.458 L 157.556 58.500 164.167 58.500 L 170.777 58.500 171.224 56.542 C 171.470 55.465,171.689 54.285,171.711 53.920 L 171.750 53.257 170.167 53.055 C 169.296 52.944,167.983 52.776,167.250 52.683 C 166.517 52.589,165.242 52.432,164.417 52.335 C 163.592 52.237,162.354 52.088,161.667 52.002 C 159.234 51.700,158.980 51.690,158.919 51.889 M375.570 51.934 C 375.993 52.097,375.878 52.267,375.208 52.470 C 374.857 52.577,373.972 53.191,373.188 53.871 C 371.029 55.746,371.462 55.640,369.124 54.860 C 368.002 54.485,366.449 53.951,365.675 53.673 C 364.900 53.394,364.131 53.167,363.966 53.167 C 363.744 53.167,363.667 53.037,363.667 52.667 C 363.667 52.026,363.612 52.019,366.516 53.000 C 367.873 53.458,369.175 53.833,369.409 53.833 C 369.758 53.833,369.836 53.915,369.846 54.292 L 369.860 54.750 370.027 54.292 C 370.119 54.040,370.289 53.833,370.404 53.833 C 370.519 53.833,371.356 53.385,372.265 52.837 C 373.910 51.844,374.742 51.617,375.570 51.934 M392.692 60.783 C 392.542 61.050,392.000 60.160,392.000 59.646 C 392.000 59.566,391.906 59.497,391.792 59.493 C 391.677 59.489,391.846 59.346,392.167 59.175 L 392.750 58.863 392.800 59.681 C 392.828 60.131,392.779 60.626,392.692 60.783 M38.621 63.901 C 35.603 64.549,35.012 67.664,37.628 69.128 C 37.951 69.309,39.748 69.812,41.167 70.119 C 42.364 70.378,43.062 71.595,42.458 72.370 C 41.191 73.995,37.805 73.435,37.165 71.494 C 36.944 70.824,36.777 70.741,36.042 70.938 C 35.768 71.012,35.667 71.163,35.667 71.499 C 35.667 75.239,42.999 75.931,44.080 72.294 C 44.647 70.383,43.422 68.915,40.844 68.419 C 40.640 68.380,40.335 68.304,40.167 68.250 C 39.998 68.196,39.723 68.122,39.555 68.085 C 36.299 67.368,37.209 64.704,40.529 65.235 C 41.518 65.393,41.828 65.612,42.174 66.394 C 42.475 67.076,42.501 67.092,43.178 67.028 L 43.872 66.961 43.788 66.332 C 43.598 64.922,41.302 63.440,39.678 63.681 C 39.626 63.688,39.150 63.788,38.621 63.901 M53.750 63.901 C 47.745 65.385,48.771 74.667,54.940 74.667 C 61.359 74.667,62.178 65.108,55.867 63.844 C 54.827 63.635,54.825 63.635,53.750 63.901 M95.565 63.902 C 93.775 64.336,92.729 65.515,92.880 66.928 C 93.033 68.363,93.954 69.061,96.583 69.737 C 99.113 70.387,99.862 70.928,99.569 71.894 C 98.912 74.053,94.518 73.675,94.096 71.424 C 93.980 70.809,93.883 70.765,93.021 70.938 C 92.379 71.066,92.337 71.490,92.856 72.594 C 94.073 75.182,99.062 75.462,100.655 73.030 C 102.117 70.801,100.216 68.593,96.396 68.081 C 93.530 67.698,93.825 65.258,96.738 65.252 C 98.283 65.250,98.749 65.491,99.173 66.516 C 99.365 66.978,100.836 67.296,100.832 66.875 C 100.816 64.731,98.211 63.260,95.565 63.902 M264.127 63.910 C 260.748 64.650,259.183 68.536,260.843 72.067 C 262.453 75.491,267.744 75.622,269.381 72.278 C 269.963 71.090,269.954 71.023,269.208 70.904 C 268.865 70.849,268.530 70.792,268.464 70.777 C 268.399 70.762,268.136 71.162,267.881 71.667 C 267.050 73.307,265.185 73.847,263.586 72.909 C 261.942 71.946,261.325 69.001,262.330 66.923 C 263.407 64.699,266.723 64.502,267.852 66.595 L 268.218 67.273 268.900 67.102 C 269.276 67.008,269.606 66.917,269.635 66.900 C 270.006 66.678,268.438 64.646,267.583 64.241 C 267.139 64.031,265.453 63.639,265.186 63.684 C 265.129 63.693,264.653 63.795,264.127 63.910 M66.000 69.250 L 66.000 74.500 69.417 74.500 L 72.833 74.500 72.833 73.833 L 72.833 73.167 70.167 73.167 L 67.500 73.167 67.500 68.583 L 67.500 64.000 66.750 64.000 L 66.000 64.000 66.000 69.250 M78.029 68.032 C 78.107 73.798,78.817 74.837,82.538 74.633 C 85.931 74.447,86.500 73.468,86.500 67.808 L 86.500 64.000 85.769 64.000 L 85.039 64.000 84.974 67.879 C 84.895 72.660,84.535 73.368,82.205 73.321 C 79.953 73.275,79.641 72.610,79.609 67.784 L 79.583 64.083 78.779 64.032 L 77.974 63.981 78.029 68.032 M107.333 69.250 L 107.333 74.500 108.167 74.500 L 109.000 74.500 109.000 69.250 L 109.000 64.000 108.167 64.000 L 107.333 64.000 107.333 69.250 M118.500 64.667 L 118.500 65.333 120.250 65.333 L 122.000 65.333 122.000 69.917 L 122.000 74.500 122.833 74.500 L 123.667 74.500 123.667 69.917 L 123.667 65.333 125.417 65.333 L 127.167 65.333 127.167 64.667 L 127.167 64.000 122.833 64.000 L 118.500 64.000 118.500 64.667 M132.333 69.250 L 132.333 74.500 136.417 74.500 L 140.500 74.500 140.500 73.833 L 140.500 73.167 137.250 73.167 L 134.000 73.167 134.000 71.500 L 134.000 69.833 136.917 69.833 L 139.833 69.833 139.833 69.083 L 139.833 68.333 136.917 68.333 L 134.000 68.333 134.000 66.833 L 134.000 65.333 137.167 65.333 L 140.333 65.333 140.333 64.667 L 140.333 64.000 136.333 64.000 L 132.333 64.000 132.333 69.250 M146.500 69.250 L 146.500 74.500 147.250 74.500 L 148.000 74.500 148.000 72.440 L 148.000 70.381 150.208 70.291 C 153.697 70.150,154.829 69.337,154.832 66.969 C 154.836 64.657,153.652 64.000,149.480 64.000 L 146.500 64.000 146.500 69.250 M162.347 64.375 C 162.267 64.581,162.073 65.087,161.916 65.500 C 161.759 65.912,161.451 66.646,161.232 67.130 C 161.013 67.613,160.833 68.067,160.833 68.137 C 160.833 68.207,160.486 69.124,160.063 70.174 C 159.185 72.347,158.500 74.189,158.500 74.374 C 158.500 74.443,158.875 74.500,159.333 74.500 C 159.879 74.500,160.167 74.430,160.167 74.296 C 160.167 74.184,160.410 73.472,160.708 72.713 L 161.250 71.335 163.447 71.334 C 165.584 71.333,165.647 71.344,165.749 71.708 C 165.807 71.915,165.915 72.233,165.988 72.417 C 166.062 72.600,166.198 72.938,166.290 73.167 C 166.383 73.396,166.541 73.790,166.642 74.042 C 166.823 74.492,168.500 74.782,168.500 74.362 C 168.500 74.211,167.812 72.477,167.325 71.403 C 167.156 71.029,166.868 70.345,166.686 69.882 C 166.504 69.420,166.209 68.713,166.030 68.312 C 165.279 66.625,165.028 66.029,164.650 65.042 L 164.252 64.000 163.372 64.000 C 162.613 64.000,162.472 64.052,162.347 64.375 M171.833 64.667 L 171.833 65.333 173.583 65.333 L 175.333 65.333 175.333 69.917 L 175.333 74.500 176.167 74.500 L 177.000 74.500 177.000 69.917 L 177.000 65.333 178.750 65.333 L 180.500 65.333 180.500 64.667 L 180.500 64.000 176.167 64.000 L 171.833 64.000 171.833 64.667 M189.833 69.250 L 189.833 74.500 190.580 74.500 L 191.328 74.500 191.372 70.375 L 191.417 66.250 192.052 68.083 C 192.402 69.092,192.716 70.045,192.750 70.201 C 192.784 70.358,192.952 70.808,193.124 71.201 C 193.295 71.595,193.619 72.498,193.843 73.207 L 194.250 74.498 195.003 74.499 L 195.756 74.500 196.032 73.625 C 196.183 73.144,196.617 71.887,196.996 70.833 C 197.374 69.779,197.793 68.606,197.926 68.226 C 198.660 66.130,198.653 66.108,198.660 70.458 L 198.667 74.500 199.417 74.500 L 200.167 74.500 200.167 69.250 L 200.167 64.000 199.125 64.002 L 198.083 64.003 197.733 65.043 C 197.541 65.615,196.992 67.171,196.513 68.500 C 196.035 69.829,195.520 71.306,195.369 71.783 L 195.095 72.649 194.206 70.116 C 193.717 68.723,193.048 66.777,192.719 65.792 L 192.120 64.000 190.976 64.000 L 189.833 64.000 189.833 69.250 M206.500 69.250 L 206.500 74.500 210.583 74.500 L 214.667 74.500 214.667 73.833 L 214.667 73.167 211.417 73.167 L 208.167 73.167 208.167 71.500 L 208.167 69.833 211.083 69.833 L 214.000 69.833 214.000 69.083 L 214.000 68.333 211.083 68.333 L 208.167 68.333 208.167 66.833 L 208.167 65.333 211.333 65.333 L 214.500 65.333 214.500 64.667 L 214.500 64.000 210.500 64.000 L 206.500 64.000 206.500 69.250 M220.667 69.266 L 220.667 74.533 223.542 74.474 C 228.081 74.382,229.672 73.037,229.665 69.297 C 229.657 65.300,228.108 64.000,223.356 64.000 L 220.667 64.000 220.667 69.266 M235.833 69.250 L 235.833 74.500 236.667 74.500 L 237.500 74.500 237.500 69.250 L 237.500 64.000 236.667 64.000 L 235.833 64.000 235.833 69.250 M245.670 64.958 C 245.467 65.485,245.240 66.067,245.166 66.250 C 244.739 67.304,242.920 71.930,242.906 72.000 C 242.880 72.119,242.665 72.670,242.417 73.250 C 241.889 74.486,241.894 74.500,242.800 74.500 L 243.622 74.500 244.145 73.117 C 244.432 72.356,244.667 71.643,244.667 71.533 C 244.667 71.388,245.275 71.333,246.901 71.333 L 249.136 71.333 249.763 72.917 L 250.390 74.500 251.278 74.500 C 252.142 74.500,252.317 74.401,252.025 74.075 C 251.947 73.988,251.678 73.392,251.427 72.750 C 251.177 72.108,250.874 71.358,250.755 71.083 C 250.201 69.804,249.818 68.902,248.828 66.542 L 247.762 64.000 246.901 64.000 L 246.039 64.000 245.670 64.958 M275.667 69.250 L 275.667 74.500 279.750 74.500 L 283.833 74.500 283.833 73.833 L 283.833 73.167 280.500 73.167 L 277.167 73.167 277.167 71.504 L 277.167 69.841 280.125 69.796 L 283.083 69.750 283.135 69.042 L 283.186 68.333 280.176 68.333 L 277.167 68.333 277.167 66.833 L 277.167 65.333 280.333 65.333 L 283.500 65.333 283.500 64.667 L 283.500 64.000 279.583 64.000 L 275.667 64.000 275.667 69.250 M288.667 64.667 L 288.667 65.333 290.417 65.333 L 292.167 65.333 292.167 69.917 L 292.167 74.500 293.000 74.500 L 293.833 74.500 293.833 69.917 L 293.833 65.333 295.583 65.333 L 297.333 65.333 297.333 64.667 L 297.333 64.000 293.000 64.000 L 288.667 64.000 288.667 64.667 M304.514 64.375 C 303.498 67.016,302.424 69.676,302.228 70.042 C 302.092 70.294,302.032 70.500,302.093 70.500 C 302.155 70.500,302.082 70.688,301.932 70.917 C 301.782 71.146,301.689 71.333,301.727 71.333 C 301.764 71.333,301.508 72.027,301.157 72.875 L 300.520 74.417 301.362 74.468 C 302.253 74.522,302.337 74.495,302.394 74.140 C 302.414 74.017,302.644 73.333,302.905 72.620 L 303.381 71.324 305.555 71.370 L 307.729 71.417 308.333 72.917 L 308.937 74.417 309.802 74.467 C 310.800 74.525,310.812 74.494,310.265 73.297 C 310.044 72.813,309.562 71.667,309.195 70.750 C 308.827 69.833,308.071 68.033,307.515 66.750 C 306.958 65.467,306.502 64.323,306.502 64.208 C 306.498 63.789,304.681 63.941,304.514 64.375 M315.000 69.250 L 315.000 74.500 315.833 74.500 L 316.667 74.500 316.667 72.662 L 316.667 70.824 317.449 70.096 L 318.230 69.368 318.697 69.976 C 318.953 70.310,319.236 70.671,319.326 70.779 C 319.416 70.887,319.623 71.187,319.786 71.446 C 319.950 71.705,320.518 72.498,321.048 73.208 L 322.013 74.500 323.016 74.500 C 323.773 74.500,323.990 74.449,323.898 74.292 C 323.760 74.058,321.457 70.988,320.176 69.333 L 319.338 68.250 319.877 67.763 C 320.174 67.496,321.195 66.540,322.146 65.638 L 323.876 64.000 322.769 64.000 L 321.662 64.000 319.206 66.407 L 316.750 68.814 316.704 66.407 L 316.658 64.000 315.829 64.000 L 315.000 64.000 315.000 69.250 M56.292 65.389 C 58.630 66.237,59.297 70.169,57.457 72.259 C 57.092 72.674,56.754 72.976,56.708 72.930 C 56.661 72.883,56.466 72.955,56.274 73.089 C 55.076 73.928,52.591 72.991,51.853 71.422 C 50.203 67.912,52.951 64.177,56.292 65.389 M152.337 65.585 C 152.942 65.898,153.167 66.304,153.167 67.083 C 153.167 68.495,152.540 68.833,149.925 68.833 L 148.000 68.833 148.000 67.083 L 148.000 65.333 149.925 65.333 C 151.316 65.333,151.985 65.403,152.337 65.585 M226.220 65.581 C 227.915 66.290,228.579 69.409,227.498 71.583 C 226.913 72.759,226.273 73.040,223.965 73.135 L 222.167 73.209 222.167 69.271 L 222.167 65.333 223.896 65.333 C 225.051 65.333,225.823 65.416,226.220 65.581 M247.611 67.417 C 247.924 68.242,248.245 69.067,248.325 69.250 C 248.740 70.204,248.793 70.167,246.995 70.167 C 245.073 70.167,245.149 70.297,245.910 68.327 C 246.228 67.505,246.575 66.514,246.683 66.125 C 246.794 65.721,246.914 65.524,246.961 65.667 C 247.006 65.804,247.299 66.592,247.611 67.417 M164.174 67.792 C 164.565 68.869,164.957 69.844,165.046 69.958 C 165.173 70.122,164.829 70.167,163.439 70.167 L 161.670 70.167 162.106 69.042 C 162.346 68.423,162.702 67.448,162.896 66.875 C 163.355 65.517,163.346 65.510,164.174 67.792 M305.929 66.708 C 306.088 67.190,306.466 68.165,306.769 68.875 L 307.321 70.167 305.559 70.167 C 303.947 70.167,303.808 70.142,303.916 69.875 C 304.161 69.273,305.041 66.896,305.212 66.375 C 305.456 65.629,305.593 65.692,305.929 66.708 " stroke="none" fill="#5c5c5c" fill-rule="evenodd"></path><path id="path1" d="M41.167 0.181 C 36.700 0.733,31.846 1.879,29.250 2.993 C 29.067 3.071,28.579 3.261,28.167 3.415 C 25.653 4.351,20.378 7.072,20.194 7.528 C 20.164 7.604,20.066 7.667,19.977 7.667 C 19.820 7.667,17.836 8.951,17.667 9.162 C 17.621 9.219,17.321 9.446,17.000 9.667 C 16.679 9.887,16.379 10.109,16.333 10.160 C 16.287 10.210,15.950 10.476,15.583 10.749 C 14.388 11.642,10.660 15.379,9.349 17.000 C 7.891 18.802,5.833 21.722,5.833 21.988 C 5.833 22.086,5.777 22.167,5.708 22.168 C 5.640 22.169,5.503 22.337,5.404 22.543 C 5.305 22.749,4.913 23.517,4.533 24.250 C 3.377 26.481,2.838 27.784,1.672 31.167 C -0.456 37.341,-0.536 48.580,1.503 54.761 C 1.599 55.049,1.704 55.427,1.738 55.601 C 2.041 57.169,3.858 61.822,5.440 65.083 C 6.013 66.265,6.233 66.666,7.977 69.708 C 8.471 70.569,9.407 72.075,9.505 72.167 C 9.555 72.212,9.889 72.698,10.248 73.246 C 10.607 73.794,10.992 74.357,11.103 74.496 C 11.215 74.636,12.035 75.725,12.927 76.917 C 15.105 79.828,15.726 80.572,15.799 80.354 C 15.832 80.254,15.714 79.964,15.536 79.711 C 15.242 79.292,14.728 78.464,13.284 76.083 C 11.927 73.846,9.883 69.793,9.144 67.875 C 9.065 67.669,8.932 67.331,8.849 67.125 C 7.438 63.624,6.407 59.759,5.639 55.083 C 5.344 53.289,5.340 45.560,5.632 43.750 C 6.235 40.024,7.375 35.772,8.398 33.441 C 8.524 33.152,8.759 32.617,8.920 32.250 C 9.920 29.969,11.002 28.025,12.710 25.438 C 14.934 22.070,19.225 17.622,22.750 15.030 C 23.392 14.558,23.992 14.114,24.083 14.042 C 25.663 12.808,30.406 10.261,33.180 9.158 C 41.669 5.782,50.431 5.011,59.833 6.812 C 62.097 7.245,66.820 8.733,68.957 9.685 C 69.345 9.858,69.702 10.000,69.750 10.000 C 69.946 10.000,73.502 11.787,74.630 12.451 C 75.297 12.845,75.916 13.167,76.005 13.167 C 76.094 13.167,76.167 13.242,76.167 13.333 C 76.167 13.425,76.244 13.500,76.338 13.500 C 76.432 13.500,77.536 14.194,78.792 15.042 C 81.687 16.996,81.500 16.884,81.500 16.659 C 81.500 16.384,77.143 12.094,75.667 10.916 C 74.979 10.367,74.379 9.877,74.333 9.826 C 74.287 9.775,73.987 9.554,73.667 9.333 C 73.346 9.113,73.046 8.886,73.000 8.828 C 72.861 8.653,70.357 7.000,70.232 7.000 C 70.167 7.000,69.883 6.824,69.599 6.608 C 68.516 5.785,64.401 3.808,61.750 2.836 C 61.200 2.634,60.487 2.367,60.167 2.242 C 58.418 1.560,54.967 0.786,51.583 0.319 C 49.940 0.092,42.666 -0.004,41.167 0.181 M174.582 27.331 C 174.648 27.437,172.784 27.512,169.300 27.542 L 163.917 27.588 169.479 27.627 C 174.407 27.662,175.017 27.638,174.833 27.417 C 174.601 27.137,174.425 27.077,174.582 27.331 M43.719 27.625 C 45.260 27.652,47.735 27.652,49.219 27.625 C 50.703 27.597,49.442 27.575,46.417 27.575 C 43.392 27.575,42.178 27.597,43.719 27.625 M59.208 27.625 C 60.744 27.652,63.256 27.652,64.792 27.625 C 66.327 27.597,65.071 27.575,62.000 27.575 C 58.929 27.575,57.673 27.597,59.208 27.625 M21.724 30.917 C 20.258 32.384,18.726 34.033,18.321 34.583 C 17.915 35.133,17.505 35.667,17.409 35.770 C 17.313 35.872,16.908 36.472,16.510 37.103 C 16.111 37.734,15.657 38.438,15.501 38.668 C 14.913 39.531,13.269 43.133,12.801 44.583 C 12.103 46.744,11.690 48.658,11.336 51.382 C 11.042 53.639,11.252 58.335,11.739 60.417 C 12.483 63.591,12.803 64.687,13.493 66.417 C 13.999 67.688,15.117 70.042,15.548 70.747 C 15.659 70.929,15.956 71.393,16.208 71.777 C 16.460 72.162,16.667 72.523,16.667 72.579 C 16.667 72.635,16.744 72.771,16.839 72.882 C 16.934 72.993,17.339 73.556,17.739 74.134 C 19.268 76.342,22.840 80.078,24.833 81.554 C 25.429 81.995,26.168 82.557,26.475 82.803 C 27.691 83.777,31.425 85.875,33.167 86.564 C 33.579 86.727,34.142 86.957,34.417 87.074 C 35.483 87.528,35.941 87.706,36.583 87.919 C 37.704 88.290,39.530 88.780,40.583 88.993 C 41.133 89.104,41.733 89.227,41.917 89.267 C 45.214 89.978,51.125 89.999,55.333 89.315 C 57.275 88.999,58.691 88.693,60.583 88.179 C 61.254 87.997,63.168 87.357,63.583 87.177 C 63.767 87.097,64.554 86.789,65.333 86.493 C 67.344 85.729,71.779 83.499,73.438 82.417 C 74.212 81.913,74.885 81.500,74.934 81.500 C 75.065 81.500,76.432 80.544,76.738 80.239 C 76.882 80.094,77.000 80.018,77.000 80.070 C 77.000 80.121,77.131 80.056,77.292 79.924 C 77.452 79.793,78.071 79.327,78.667 78.889 C 80.134 77.809,81.737 76.488,81.810 76.296 C 81.899 76.063,79.727 77.264,79.333 77.665 C 79.140 77.862,75.393 79.780,74.407 80.188 C 73.245 80.667,71.436 81.359,70.750 81.586 C 69.848 81.884,67.686 82.515,67.336 82.583 C 67.181 82.613,66.760 82.715,66.402 82.809 C 65.746 82.982,64.669 83.178,62.667 83.488 C 57.691 84.258,51.192 83.991,46.250 82.814 C 45.883 82.727,45.409 82.624,45.195 82.585 C 44.981 82.546,44.669 82.470,44.500 82.417 C 44.331 82.363,44.056 82.290,43.888 82.254 C 43.477 82.165,40.268 81.106,39.333 80.749 C 37.332 79.987,34.464 78.643,33.160 77.857 C 27.139 74.227,23.608 70.895,20.151 65.581 C 19.611 64.751,18.000 61.406,18.000 61.115 C 18.000 60.997,17.940 60.829,17.867 60.742 C 17.600 60.422,16.891 57.876,16.477 55.750 C 16.168 54.162,16.171 48.179,16.481 46.500 C 17.530 40.831,19.505 36.167,23.208 30.614 C 25.074 27.816,24.761 27.880,21.724 30.917 M389.555 46.750 C 389.555 47.392,389.586 47.634,389.622 47.288 C 389.658 46.942,389.657 46.417,389.620 46.121 C 389.583 45.825,389.554 46.108,389.555 46.750 M389.552 48.917 C 389.553 49.467,389.584 49.672,389.621 49.372 C 389.658 49.072,389.657 48.622,389.619 48.372 C 389.581 48.122,389.551 48.367,389.552 48.917 M207.050 53.124 C 207.856 53.155,209.131 53.155,209.883 53.124 C 210.635 53.093,209.975 53.068,208.417 53.068 C 206.858 53.068,206.243 53.094,207.050 53.124 M283.545 64.667 C 283.545 65.079,283.578 65.248,283.618 65.042 C 283.657 64.835,283.657 64.498,283.618 64.292 C 283.578 64.085,283.545 64.254,283.545 64.667 M261.875 69.250 C 261.877 69.617,261.911 69.747,261.951 69.540 C 261.991 69.332,261.990 69.032,261.948 68.873 C 261.906 68.714,261.874 68.883,261.875 69.250 M162.208 71.457 C 162.827 71.489,163.840 71.489,164.458 71.457 C 165.077 71.425,164.571 71.399,163.333 71.399 C 162.096 71.399,161.590 71.425,162.208 71.457 M245.875 71.457 C 246.494 71.489,247.506 71.489,248.125 71.457 C 248.744 71.425,248.237 71.399,247.000 71.399 C 245.762 71.399,245.256 71.425,245.875 71.457 M304.375 71.457 C 304.994 71.489,306.006 71.489,306.625 71.457 C 307.244 71.425,306.737 71.399,305.500 71.399 C 304.262 71.399,303.756 71.425,304.375 71.457 " stroke="none" fill="#444444" fill-rule="evenodd"></path><path id="path2" d="M108.708 34.291 C 109.602 34.321,111.065 34.321,111.958 34.291 C 112.852 34.261,112.121 34.236,110.333 34.236 C 108.546 34.236,107.815 34.261,108.708 34.291 M332.205 39.333 C 332.205 39.654,332.240 39.785,332.282 39.625 C 332.323 39.465,332.323 39.202,332.282 39.042 C 332.240 38.881,332.205 39.012,332.205 39.333 " stroke="none" fill="#4c4444" fill-rule="evenodd"></path><path id="path3" d="M148.062 67.083 C 148.063 68.092,148.090 68.483,148.123 67.952 C 148.157 67.422,148.156 66.597,148.123 66.119 C 148.089 65.641,148.062 66.075,148.062 67.083 M148.064 72.333 C 148.064 73.479,148.091 73.948,148.123 73.375 C 148.156 72.802,148.156 71.865,148.123 71.292 C 148.091 70.719,148.064 71.188,148.064 72.333 " stroke="none" fill="#5c6050" fill-rule="evenodd"></path><path id="path4" d="M148.062 67.083 C 148.063 68.092,148.090 68.483,148.123 67.952 C 148.157 67.422,148.156 66.597,148.123 66.119 C 148.089 65.641,148.062 66.075,148.062 67.083 M148.064 72.333 C 148.064 73.479,148.091 73.948,148.123 73.375 C 148.156 72.802,148.156 71.865,148.123 71.292 C 148.091 70.719,148.064 71.188,148.064 72.333 " stroke="none" fill="#5c6050" fill-rule="evenodd"></path><path id="path5" d="M148.062 67.083 C 148.063 68.092,148.090 68.483,148.123 67.952 C 148.157 67.422,148.156 66.597,148.123 66.119 C 148.089 65.641,148.062 66.075,148.062 67.083 M148.064 72.333 C 148.064 73.479,148.091 73.948,148.123 73.375 C 148.156 72.802,148.156 71.865,148.123 71.292 C 148.091 70.719,148.064 71.188,148.064 72.333 " stroke="none" fill="#5c6050" fill-rule="evenodd"></path><path id="path6" d="M148.062 67.083 C 148.063 68.092,148.090 68.483,148.123 67.952 C 148.157 67.422,148.156 66.597,148.123 66.119 C 148.089 65.641,148.062 66.075,148.062 67.083 M148.064 72.333 C 148.064 73.479,148.091 73.948,148.123 73.375 C 148.156 72.802,148.156 71.865,148.123 71.292 C 148.091 70.719,148.064 71.188,148.064 72.333 " stroke="none" fill="#5c6050" fill-rule="evenodd"></path><path id="path7" d="M148.062 67.083 C 148.063 68.092,148.090 68.483,148.123 67.952 C 148.157 67.422,148.156 66.597,148.123 66.119 C 148.089 65.641,148.062 66.075,148.062 67.083 M148.064 72.333 C 148.064 73.479,148.091 73.948,148.123 73.375 C 148.156 72.802,148.156 71.865,148.123 71.292 C 148.091 70.719,148.064 71.188,148.064 72.333 " stroke="none" fill="#5c6050" fill-rule="evenodd"></path><path id="path8" d="M148.062 67.083 C 148.063 68.092,148.090 68.483,148.123 67.952 C 148.157 67.422,148.156 66.597,148.123 66.119 C 148.089 65.641,148.062 66.075,148.062 67.083 M148.064 72.333 C 148.064 73.479,148.091 73.948,148.123 73.375 C 148.156 72.802,148.156 71.865,148.123 71.292 C 148.091 70.719,148.064 71.188,148.064 72.333 " stroke="none" fill="#5c6050" fill-rule="evenodd"></path></g></svg>